<?xml version="1.0" encoding="utf-8"?>
<!-- Generator: Adobe Illustrator 22.0.0, SVG Export Plug-In . SVG Version: 6.00 Build 0)  -->
<svg version="1.1" id="Layer_1" xmlns="http://www.w3.org/2000/svg" xmlns:xlink="http://www.w3.org/1999/xlink" x="0px" y="0px"
	 viewBox="0 0 540 540" style="enable-background:new 0 0 540 540;" xml:space="preserve">
<style type="text/css">
	.st0{fill:none;}
	.st1{fill:#5DCB79;}
	.st2{fill:#FFFFFF;}
</style>
<g>
	<rect class="st0" width="540" height="540"/>
	<path class="st1" d="M486.5,324C456.7,443.6,335.6,516.4,216,486.5C96.4,456.7,23.6,335.6,53.5,216C83.3,96.4,204.4,23.7,324,53.5
		S516.4,204.4,486.5,324L486.5,324z"/>
	<g>
		<path class="st2" d="M345.3,196.2c-9.9-28.4-37.3-32.1-69.6-27.2l-9.7-40.3l-24.5,5.9l9.4,39.3c-6.5,1.5-13,3.2-19.5,5l-9.6-39.5
			l-24.5,6l9.6,40.2l-49.5,12l6.3,26.3c0,0,18-4.8,17.8-4.3c10-2.4,14.6,2.6,16.8,7.3L225,337.2c0.4,3.2-0.3,8.7-7.2,10.4
			c0.4,0.2-17.9,4.3-17.9,4.3l2.2,30.5l49.5-11.7l9.8,40.8l24.6-5.9l-9.7-40.3c6.8-1.5,13.3-3,19.7-4.5l9.6,40.1l24.6-5.9l-9.8-40.7
			c40.7-12.3,67-29.7,61.3-69.3c-4.6-31.9-22.6-42.3-47.4-42.3C346.7,231.9,352.5,217,345.3,196.2L345.3,196.2z M332,291.7
			c7.3,30.5-45.6,39.6-62.3,43.6l-13-54C273.4,277.3,324.4,259.9,332,291.7L332,291.7z M302.2,218.2c6.7,27.8-37.6,35.1-51.5,38.4
			l-11.8-49C252.8,204.2,295.2,189.3,302.2,218.2L302.2,218.2z M302.2,218.2L302.2,218.2L302.2,218.2z"/>
	</g>
</g>
</svg>
